<svg width="512" height="512" viewBox="0 0 512 512" fill="none" xmlns="http://www.w3.org/2000/svg">
  <defs>
    <linearGradient id="bg" x1="72" y1="52" x2="438" y2="458" gradientUnits="userSpaceOnUse">
      <stop stop-color="#15233F"/>
      <stop offset="0.56" stop-color="#0B1220"/>
      <stop offset="1" stop-color="#07111B"/>
    </linearGradient>
    <radialGradient id="haloA" cx="0" cy="0" r="1" gradientUnits="userSpaceOnUse" gradientTransform="translate(142 108) rotate(56) scale(298 238)">
      <stop stop-color="#2563EB" stop-opacity="0.56"/>
      <stop offset="1" stop-color="#2563EB" stop-opacity="0"/>
    </radialGradient>
    <radialGradient id="haloB" cx="0" cy="0" r="1" gradientUnits="userSpaceOnUse" gradientTransform="translate(404 408) rotate(-142) scale(250 210)">
      <stop stop-color="#10B981" stop-opacity="0.44"/>
      <stop offset="1" stop-color="#10B981" stop-opacity="0"/>
    </radialGradient>
    <linearGradient id="lane" x1="133" y1="158" x2="390" y2="348" gradientUnits="userSpaceOnUse">
      <stop stop-color="#F8FAFC"/>
      <stop offset="0.46" stop-color="#BFD7FF"/>
      <stop offset="1" stop-color="#60A5FA"/>
    </linearGradient>
    <linearGradient id="branch" x1="245" y1="318" x2="376" y2="382" gradientUnits="userSpaceOnUse">
      <stop stop-color="#A7F3D0"/>
      <stop offset="1" stop-color="#10B981"/>
    </linearGradient>
  </defs>
  <rect width="512" height="512" rx="118" fill="url(#bg)"/>
  <rect width="512" height="512" rx="118" fill="url(#haloA)"/>
  <rect width="512" height="512" rx="118" fill="url(#haloB)"/>
  <path d="M152 354V158H290C346.4 158 383 190.8 383 240.8C383 291.2 346.2 324 290 324H198" stroke="#020617" stroke-opacity="0.30" stroke-width="56" stroke-linecap="round" stroke-linejoin="round"/>
  <path d="M249 324L366 374" stroke="#020617" stroke-opacity="0.28" stroke-width="56" stroke-linecap="round" stroke-linejoin="round"/>
  <path d="M152 354V158H290C346.4 158 383 190.8 383 240.8C383 291.2 346.2 324 290 324H198" stroke="url(#lane)" stroke-width="44" stroke-linecap="round" stroke-linejoin="round"/>
  <path d="M249 324L366 374" stroke="url(#branch)" stroke-width="44" stroke-linecap="round" stroke-linejoin="round"/>
  <path d="M203 240H286" stroke="#EAF2FF" stroke-width="34" stroke-linecap="round"/>
  <circle cx="152" cy="158" r="16" fill="#F8FAFC"/>
  <circle cx="198" cy="324" r="13" fill="#DBEAFE"/>
  <circle cx="366" cy="374" r="13" fill="#BBF7D0"/>
</svg>
