<svg width="64" height="64" viewBox="0 0 64 64" fill="none" xmlns="http://www.w3.org/2000/svg">
  <defs>
    <linearGradient id="a" x1="10" y1="20" x2="54" y2="25" gradientUnits="userSpaceOnUse">
      <stop stop-color="#E0F2FE"/>
      <stop offset="0.48" stop-color="#38BDF8"/>
      <stop offset="1" stop-color="#818CF8"/>
    </linearGradient>
    <linearGradient id="b" x1="10" y1="44" x2="54" y2="38" gradientUnits="userSpaceOnUse">
      <stop stop-color="#BBF7D0"/>
      <stop offset="0.52" stop-color="#34D399"/>
      <stop offset="1" stop-color="#22D3EE"/>
    </linearGradient>
    <linearGradient id="c" x1="13" y1="32" x2="51" y2="32" gradientUnits="userSpaceOnUse">
      <stop stop-color="#F8FAFC"/>
      <stop offset="1" stop-color="#BFDBFE"/>
    </linearGradient>
  </defs>
  <path d="M10 21C18 13.5 29 14.4 37 21C41 24.3 45.4 26.1 54 25.6" stroke="#020617" stroke-opacity="0.32" stroke-width="8" stroke-linecap="round"/>
  <path d="M10 43C19 50.2 29.6 49 37 42C41.1 38.1 45.5 36.2 54 37.1" stroke="#020617" stroke-opacity="0.28" stroke-width="8" stroke-linecap="round"/>
  <path d="M13 32H51" stroke="#020617" stroke-opacity="0.28" stroke-width="7" stroke-linecap="round"/>
  <path d="M10 21C18 13.5 29 14.4 37 21C41 24.3 45.4 26.1 54 25.6" stroke="url(#a)" stroke-width="4.6" stroke-linecap="round"/>
  <path d="M10 43C19 50.2 29.6 49 37 42C41.1 38.1 45.5 36.2 54 37.1" stroke="url(#b)" stroke-width="4.6" stroke-linecap="round"/>
  <path d="M13 32H51" stroke="url(#c)" stroke-width="4.2" stroke-linecap="round"/>
  <circle cx="32" cy="32" r="6" fill="#07101F" stroke="#E0F2FE" stroke-width="2.6"/>
  <circle cx="32" cy="32" r="2.2" fill="#34D399"/>
  <circle cx="10" cy="21" r="3.2" fill="#E0F2FE"/>
  <circle cx="54" cy="25.6" r="3" fill="#818CF8"/>
  <circle cx="10" cy="43" r="3.2" fill="#BBF7D0"/>
  <circle cx="54" cy="37.1" r="3" fill="#22D3EE"/>
</svg>
